<svg data-v-fde0c5aa="" xmlns="http://www.w3.org/2000/svg" viewBox="0 0 300 300" class="iconLeftSlogan"><!----><defs data-v-fde0c5aa=""><!----></defs><rect data-v-fde0c5aa="" fill="transparent" x="0" y="0" width="300px" height="300px" class="logo-background-square"></rect><defs data-v-fde0c5aa=""><!----></defs><g data-v-fde0c5aa="" id="93197930-affb-4464-a458-9bd10fac7a46" fill="#000000" transform="matrix(2.87670431785725,0,0,2.87670431785725,144.21265600726397,123.38703297589024)"><path d="M2.87 5.78L2.87 5.78L2.87 5.78Q3.16 5.92 3.39 6.19L3.39 6.19L3.39 6.19Q3.88 6.80 3.88 8.04L3.88 8.04L3.88 8.04Q3.88 9.27 3.39 9.88L3.39 9.88L3.39 9.88Q2.87 10.50 1.79 10.50L1.79 10.50L0.69 10.50L0.24 10.50L0.24 10.07L0.24 1.06L1.79 1.06L1.79 1.06Q2.87 1.06 3.39 1.68L3.39 1.68L3.39 1.68Q3.88 2.30 3.88 3.53L3.88 3.53L3.88 3.53Q3.88 4.75 3.39 5.36L3.39 5.36L3.39 5.36Q3.28 5.50 3.15 5.60L3.15 5.60L3.15 5.60Q3.02 5.70 2.87 5.78ZM0.69 1.50L0.69 5.56L1.79 5.56L1.79 5.56Q2.66 5.56 3.04 5.08L3.04 5.08L3.04 5.08Q3.43 4.61 3.43 3.53L3.43 3.53L3.43 3.53Q3.43 2.44 3.05 1.97L3.05 1.97L3.05 1.97Q2.67 1.50 1.79 1.50L1.79 1.50L0.69 1.50ZM0.69 10.07L1.79 10.07L1.79 10.07Q2.67 10.07 3.05 9.60L3.05 9.60L3.05 9.60Q3.43 9.13 3.43 8.04L3.43 8.04L3.43 8.04Q3.43 6.94 3.04 6.47L3.04 6.47L3.04 6.47Q2.66 5.99 1.79 5.99L1.79 5.99L0.69 5.99L0.69 10.07ZM5.46 10.50L5.46 10.50L5.03 10.50L5.03 1.06L5.46 1.06L5.46 10.50L5.46 10.50ZM10.91 1.06L10.91 1.06L8.01 5.39L10.91 10.50L10.40 10.50L7.74 5.81L6.79 7.22L6.79 10.50L6.34 10.50L6.34 1.06L6.79 1.06L6.79 6.43L10.37 1.06L10.91 1.06ZM14.80 1.50L11.84 1.50L11.84 5.56L14.80 5.56L14.80 5.99L11.84 5.99L11.84 10.07L14.80 10.07L14.80 10.50L11.41 10.50L11.41 1.06L14.80 1.06L14.80 1.50ZM17.67 10.50L17.67 10.50L17.67 10.50Q16.66 10.50 16.14 9.86L16.14 9.86L16.14 9.86Q15.65 9.21 15.65 8.01L15.65 8.01L15.65 3.54L15.65 3.54Q15.65 2.32 16.14 1.71L16.14 1.71L16.14 1.71Q16.66 1.06 17.67 1.06L17.67 1.06L17.67 1.06Q18.68 1.06 19.18 1.71L19.18 1.71L19.18 1.71Q19.68 2.32 19.68 3.54L19.68 3.54L19.68 3.77L19.24 3.77L19.24 3.54L19.24 3.54Q19.24 2.86 19.08 2.45L19.08 2.45L19.08 2.45Q18.93 2.04 18.70 1.83L18.70 1.83L18.70 1.83Q18.47 1.62 18.19 1.56L18.19 1.56L18.19 1.56Q17.92 1.50 17.67 1.50L17.67 1.50L17.67 1.50Q17.42 1.50 17.14 1.56L17.14 1.56L17.14 1.56Q16.86 1.62 16.63 1.83L16.63 1.83L16.63 1.83Q16.39 2.04 16.24 2.45L16.24 2.45L16.24 2.45Q16.09 2.86 16.09 3.54L16.09 3.54L16.09 8.01L16.09 8.01Q16.09 9.06 16.49 9.58L16.49 9.58L16.49 9.58Q16.87 10.07 17.67 10.07L17.67 10.07L17.67 10.07Q18.45 10.07 18.83 9.58L18.83 9.58L18.83 9.58Q19.24 9.06 19.24 8.01L19.24 8.01L19.24 6.78L17.19 6.78L17.19 6.33L19.68 6.33L19.68 8.01L19.68 8.01Q19.68 9.23 19.18 9.86L19.18 9.86L19.18 9.86Q18.68 10.50 17.67 10.50ZM23.97 1.50L21.01 1.50L21.01 5.56L23.97 5.56L23.97 5.99L21.01 5.99L21.01 10.07L23.97 10.07L23.97 10.50L20.58 10.50L20.58 1.06L23.97 1.06L23.97 1.50ZM25.26 2.42L25.26 2.42L25.26 10.50L24.81 10.50L24.81 1.06L25.19 1.06L28.43 9.14L28.43 1.06L28.88 1.06L28.88 10.50L28.52 10.50L25.26 2.42ZM30.48 10.50L30.48 10.50L30.04 10.50L30.04 1.06L30.48 1.06L30.48 10.50L30.48 10.50ZM33.38 10.50L33.38 10.50L33.38 10.50Q33.03 10.50 32.67 10.40L32.67 10.40L32.67 10.40Q32.31 10.30 32.02 10.02L32.02 10.02L32.02 10.02Q31.72 9.74 31.54 9.26L31.54 9.26L31.54 9.26Q31.36 8.78 31.36 7.99L31.36 7.99L31.36 3.56L31.36 3.56Q31.36 2.79 31.54 2.30L31.54 2.30L31.54 2.30Q31.72 1.81 32.02 1.53L32.02 1.53L32.02 1.53Q32.31 1.26 32.67 1.16L32.67 1.16L32.67 1.16Q33.03 1.06 33.38 1.06L33.38 1.06L33.38 1.06Q33.71 1.06 34.07 1.16L34.07 1.16L34.07 1.16Q34.43 1.26 34.72 1.53L34.72 1.53L34.72 1.53Q35.01 1.81 35.20 2.30L35.20 2.30L35.20 2.30Q35.38 2.79 35.38 3.56L35.38 3.56L35.38 3.78L34.93 3.78L34.93 3.56L34.93 3.56Q34.93 2.48 34.54 1.99L34.54 1.99L34.54 1.99Q34.13 1.50 33.38 1.50L33.38 1.50L33.38 1.50Q32.61 1.50 32.20 1.99L32.20 1.99L32.20 1.99Q31.81 2.48 31.81 3.56L31.81 3.56L31.81 7.99L31.81 7.99Q31.81 9.07 32.21 9.58L32.21 9.58L32.21 9.58Q32.59 10.07 33.38 10.07L33.38 10.07L33.38 10.07Q34.13 10.07 34.54 9.58L34.54 9.58L34.54 9.58Q34.93 9.06 34.93 7.99L34.93 7.99L34.93 7.77L35.38 7.77L35.38 7.99L35.38 7.99Q35.38 8.78 35.20 9.26L35.20 9.26L35.20 9.26Q35.01 9.74 34.72 10.02L34.72 10.02L34.72 10.02Q34.43 10.30 34.07 10.40L34.07 10.40L34.07 10.40Q33.71 10.50 33.38 10.50ZM38.22 10.49L38.22 10.49L38.22 10.49Q37.21 10.49 36.71 9.84L36.71 9.84L36.71 9.84Q36.20 9.24 36.20 7.99L36.20 7.99L36.20 7.78L36.64 7.78L36.64 7.99L36.64 7.99Q36.64 8.69 36.79 9.10L36.79 9.10L36.79 9.10Q36.95 9.51 37.18 9.72L37.18 9.72L37.18 9.72Q37.41 9.93 37.69 9.99L37.69 9.99L37.69 9.99Q37.97 10.05 38.22 10.05L38.22 10.05L38.22 10.05Q38.98 10.05 39.39 9.53L39.39 9.53L39.39 9.53Q39.80 9.00 39.80 8.06L39.80 8.06L39.80 8.06Q39.80 7.56 39.63 7.22L39.63 7.22L39.63 7.22Q39.45 6.87 39.21 6.65L39.21 6.65L39.21 6.65Q38.96 6.43 38.70 6.30L38.70 6.30L38.70 6.30Q38.43 6.17 38.26 6.10L38.26 6.10L38.02 6.01L38.02 6.01Q37.81 5.92 37.51 5.76L37.51 5.76L37.51 5.76Q37.20 5.60 36.91 5.31L36.91 5.31L36.91 5.31Q36.62 5.03 36.41 4.60L36.41 4.60L36.41 4.60Q36.20 4.17 36.20 3.56L36.20 3.56L36.20 3.56Q36.20 2.49 36.69 1.81L36.69 1.81L36.69 1.81Q37.25 1.05 38.22 1.05L38.22 1.05L38.22 1.05Q39.21 1.05 39.75 1.71L39.75 1.71L39.75 1.71Q40.25 2.34 40.25 3.56L40.25 3.56L40.25 3.78L39.80 3.78L39.80 3.56L39.80 3.56Q39.80 2.49 39.40 1.97L39.40 1.97L39.40 1.97Q39.02 1.50 38.22 1.50L38.22 1.50L38.22 1.50Q37.46 1.50 37.06 2.07L37.06 2.07L37.06 2.07Q36.64 2.65 36.64 3.56L36.64 3.56L36.64 3.56Q36.64 4.06 36.81 4.41L36.81 4.41L36.81 4.41Q36.97 4.76 37.22 5.00L37.22 5.00L37.22 5.00Q37.46 5.24 37.73 5.38L37.73 5.38L37.73 5.38Q38.00 5.52 38.21 5.60L38.21 5.60L38.43 5.70L38.43 5.70Q38.61 5.77 38.92 5.92L38.92 5.92L38.92 5.92Q39.23 6.06 39.52 6.33L39.52 6.33L39.52 6.33Q39.82 6.61 40.03 7.03L40.03 7.03L40.03 7.03Q40.25 7.45 40.25 8.06L40.25 8.06L40.25 8.06Q40.25 9.11 39.75 9.77L39.75 9.77L39.75 9.77Q39.20 10.49 38.22 10.49Z"></path></g><defs data-v-fde0c5aa=""><linearGradient data-v-fde0c5aa="" gradientTransform="rotate(25)" id="ffb3b4f2-3840-4f7d-9964-98ae60953104" x1="0%" y1="0%" x2="100%" y2="0%"><stop data-v-fde0c5aa="" offset="0%" stop-color="#000A68" stop-opacity="1"></stop><stop data-v-fde0c5aa="" offset="100%" stop-color="#00C4EE" stop-opacity="1"></stop></linearGradient></defs><g data-v-fde0c5aa="" id="2ee18f0d-c0d7-40f6-8c46-86e6aa1d3035" stroke="url(#ffb3b4f2-3840-4f7d-9964-98ae60953104)" fill="none" transform="matrix(1.9978927189344375,0,0,1.9978927189344375,38.00210728106556,102.04957444261268)"><g stroke-width="2" stroke-miterlimit="10"><circle cx="41.25" cy="33.637" r="5.75"></circle><circle cx="6.751" cy="33.637" r="5.751"></circle><path stroke-linecap="round" stroke-linejoin="round" d="M32.751 8.613c9.392 2.105 12.312 12.955 12.312 12.955-13.12-2.267-15.714 14.579-15.714 14.579H18.334C17.525 22.379 1 18.331 1 18.331s7.619-2.429 11.341-.323c3.726 2.105 11.336.646 13.121-1.459 1.781-2.104 8.098-2.755 11.5-.484"></path></g></g><defs data-v-fde0c5aa=""><!----></defs><g data-v-fde0c5aa="" id="75c50733-9bab-4cc2-9af9-d382aafd3d9c" fill="#000000" transform="matrix(0.526976480010853,0,0,0.526976480010853,144.53418154125856,162.3013352263768)"><path d="M9.94 7.63L5.88 7.63L5.88 8.11L9.46 8.11C9.38 9.32 8.98 10.32 8.27 11.09C7.56 11.87 6.63 12.26 5.46 12.26C4.17 12.26 3.13 11.82 2.34 10.94C1.54 10.06 1.15 8.98 1.15 7.70C1.15 6.40 1.55 5.32 2.36 4.45C3.17 3.57 4.20 3.14 5.46 3.14C6.21 3.14 6.90 3.31 7.54 3.65C8.18 4.00 8.69 4.47 9.07 5.05L9.46 4.75C9.03 4.11 8.47 3.61 7.78 3.24C7.10 2.87 6.33 2.69 5.46 2.69C4.11 2.69 2.98 3.17 2.06 4.13C1.16 5.09 0.70 6.28 0.70 7.70C0.70 9.12 1.16 10.31 2.06 11.27C2.98 12.23 4.11 12.71 5.46 12.71C6.83 12.71 7.92 12.22 8.73 11.23C9.54 10.25 9.94 9.05 9.94 7.63ZM19.39 7.48L23.73 7.48L23.73 7.08L19.39 7.08L19.39 3.21L24.01 3.21L24.01 2.80L18.97 2.80L18.97 12.60L24.01 12.60L24.01 12.19L19.39 12.19ZM32.41 3.21L34.93 3.21L34.93 12.60L35.35 12.60L35.35 3.21L37.87 3.21L37.87 2.80L32.41 2.80ZM57.47 7.70C57.47 6.38 57.88 5.29 58.69 4.41C59.50 3.53 60.53 3.09 61.77 3.09C63.01 3.09 64.04 3.53 64.85 4.41C65.66 5.29 66.07 6.38 66.07 7.70C66.07 9.02 65.66 10.11 64.85 10.99C64.04 11.87 63.01 12.31 61.77 12.31C60.53 12.31 59.50 11.87 58.69 10.99C57.88 10.11 57.47 9.02 57.47 7.70ZM57.05 7.70C57.05 9.16 57.50 10.36 58.39 11.30C59.28 12.24 60.41 12.71 61.77 12.71C63.13 12.71 64.26 12.24 65.15 11.30C66.04 10.36 66.49 9.16 66.49 7.70C66.49 6.24 66.04 5.04 65.15 4.10C64.26 3.16 63.13 2.69 61.77 2.69C60.41 2.69 59.28 3.16 58.39 4.10C57.50 5.04 57.05 6.24 57.05 7.70ZM82.38 2.80L82.38 11.79L74.89 2.45L74.89 12.60L75.31 12.60L75.31 3.61L82.80 12.95L82.80 2.80ZM108.33 2.80L105.32 8.16L102.44 2.80L101.91 2.80L105.10 8.62L105.10 12.60L105.55 12.60L105.55 8.61L108.86 2.80ZM117.19 7.70C117.19 6.38 117.60 5.29 118.41 4.41C119.22 3.53 120.25 3.09 121.49 3.09C122.73 3.09 123.76 3.53 124.57 4.41C125.38 5.29 125.79 6.38 125.79 7.70C125.79 9.02 125.38 10.11 124.57 10.99C123.76 11.87 122.73 12.31 121.49 12.31C120.25 12.31 119.22 11.87 118.41 10.99C117.60 10.11 117.19 9.02 117.19 7.70ZM116.77 7.70C116.77 9.16 117.22 10.36 118.11 11.30C119.00 12.24 120.13 12.71 121.49 12.71C122.85 12.71 123.98 12.24 124.87 11.30C125.76 10.36 126.21 9.16 126.21 7.70C126.21 6.24 125.76 5.04 124.87 4.10C123.98 3.16 122.85 2.69 121.49 2.69C120.13 2.69 119.00 3.16 118.11 4.10C117.22 5.04 116.77 6.24 116.77 7.70ZM135.10 2.80L135.10 9.24C135.10 10.29 135.38 11.13 135.95 11.77C136.52 12.42 137.28 12.74 138.22 12.74C139.16 12.74 139.92 12.42 140.49 11.77C141.06 11.13 141.34 10.29 141.34 9.24L141.34 2.80L140.92 2.80L140.92 9.24C140.92 10.17 140.67 10.92 140.16 11.47C139.65 12.02 139.01 12.29 138.22 12.29C137.44 12.29 136.79 12.02 136.28 11.47C135.77 10.92 135.52 10.17 135.52 9.24L135.52 2.80ZM151.21 2.80ZM150.79 2.80L150.79 12.60L151.21 12.60L151.21 8.48L152.77 8.48L155.89 12.60L156.44 12.60L153.24 8.47C154.14 8.41 154.86 8.15 155.39 7.67C155.93 7.20 156.20 6.52 156.20 5.64C156.20 4.71 155.89 4.00 155.29 3.52C154.68 3.04 153.88 2.80 152.89 2.80ZM151.21 3.21L152.89 3.21C153.76 3.21 154.46 3.41 154.98 3.83C155.50 4.24 155.76 4.85 155.76 5.64C155.76 6.44 155.50 7.04 154.98 7.45C154.46 7.87 153.76 8.08 152.89 8.08L151.21 8.08ZM176.04 2.80L176.04 12.60L178.14 12.60C180.26 12.60 181.33 11.69 181.33 9.87C181.33 9.19 181.09 8.62 180.62 8.17C180.15 7.72 179.58 7.41 178.92 7.25C180.15 7.02 180.77 6.30 180.77 5.11C180.77 4.40 180.51 3.84 180.01 3.42C179.50 3.01 178.78 2.80 177.86 2.80ZM176.46 7.08L176.46 3.21L177.86 3.21C178.63 3.21 179.24 3.37 179.68 3.71C180.13 4.05 180.35 4.51 180.35 5.11C180.35 5.60 180.21 5.99 179.94 6.31C179.67 6.62 179.36 6.83 179.01 6.93C178.66 7.03 178.28 7.08 177.86 7.08ZM176.46 7.48L178.14 7.48C178.54 7.48 178.94 7.56 179.34 7.72C179.74 7.88 180.10 8.16 180.40 8.54C180.71 8.92 180.87 9.37 180.87 9.87C180.87 11.42 179.96 12.19 178.14 12.19L176.46 12.19ZM190.36 2.80L190.36 12.60L190.78 12.60L190.78 2.80ZM200.16 2.80L200.16 12.60L200.58 12.60L200.58 7.56L205.02 12.60L205.60 12.60L201.01 7.39L205.39 2.80L204.82 2.80L200.58 7.24L200.58 2.80ZM214.49 7.48L218.83 7.48L218.83 7.08L214.49 7.08L214.49 3.21L219.11 3.21L219.11 2.80L214.07 2.80L214.07 12.60L219.11 12.60L219.11 12.19L214.49 12.19Z"></path></g></svg>