<svg data-v-fde0c5aa="" xmlns="http://www.w3.org/2000/svg" viewBox="0 0 300 300" class="font"><!----><defs data-v-fde0c5aa=""><!----></defs><rect data-v-fde0c5aa="" fill="transparent" x="0" y="0" width="300px" height="300px" class="logo-background-square"></rect><defs data-v-fde0c5aa=""><linearGradient data-v-fde0c5aa="" gradientTransform="rotate(25)" id="82686d9c-8d51-46d9-971d-f6174b4c36ea" x1="0%" y1="0%" x2="100%" y2="0%"><stop data-v-fde0c5aa="" offset="0%" stop-color="#000A68" stop-opacity="1"></stop><stop data-v-fde0c5aa="" offset="100%" stop-color="#00C4EE" stop-opacity="1"></stop></linearGradient></defs><g data-v-fde0c5aa="" id="63e27a03-37f6-41ec-81f2-17426c9a6d78" fill="url(#82686d9c-8d51-46d9-971d-f6174b4c36ea)" transform="matrix(5.498625574337927,0,0,5.498625574337927,38.680329809719915,118.24543809478317)"><path d="M2.87 5.78L2.87 5.78L2.87 5.78Q3.16 5.92 3.39 6.19L3.39 6.19L3.39 6.19Q3.88 6.80 3.88 8.04L3.88 8.04L3.88 8.04Q3.88 9.27 3.39 9.88L3.39 9.88L3.39 9.88Q2.87 10.50 1.79 10.50L1.79 10.50L0.69 10.50L0.24 10.50L0.24 10.07L0.24 1.06L1.79 1.06L1.79 1.06Q2.87 1.06 3.39 1.68L3.39 1.68L3.39 1.68Q3.88 2.30 3.88 3.53L3.88 3.53L3.88 3.53Q3.88 4.75 3.39 5.36L3.39 5.36L3.39 5.36Q3.28 5.50 3.15 5.60L3.15 5.60L3.15 5.60Q3.02 5.70 2.87 5.78ZM0.69 1.50L0.69 5.56L1.79 5.56L1.79 5.56Q2.66 5.56 3.04 5.08L3.04 5.08L3.04 5.08Q3.43 4.61 3.43 3.53L3.43 3.53L3.43 3.53Q3.43 2.44 3.05 1.97L3.05 1.97L3.05 1.97Q2.67 1.50 1.79 1.50L1.79 1.50L0.69 1.50ZM0.69 10.07L1.79 10.07L1.79 10.07Q2.67 10.07 3.05 9.60L3.05 9.60L3.05 9.60Q3.43 9.13 3.43 8.04L3.43 8.04L3.43 8.04Q3.43 6.94 3.04 6.47L3.04 6.47L3.04 6.47Q2.66 5.99 1.79 5.99L1.79 5.99L0.69 5.99L0.69 10.07ZM5.46 10.50L5.46 10.50L5.03 10.50L5.03 1.06L5.46 1.06L5.46 10.50L5.46 10.50ZM10.91 1.06L10.91 1.06L8.01 5.39L10.91 10.50L10.40 10.50L7.74 5.81L6.79 7.22L6.79 10.50L6.34 10.50L6.34 1.06L6.79 1.06L6.79 6.43L10.37 1.06L10.91 1.06ZM14.80 1.50L11.84 1.50L11.84 5.56L14.80 5.56L14.80 5.99L11.84 5.99L11.84 10.07L14.80 10.07L14.80 10.50L11.41 10.50L11.41 1.06L14.80 1.06L14.80 1.50ZM17.67 10.50L17.67 10.50L17.67 10.50Q16.66 10.50 16.14 9.86L16.14 9.86L16.14 9.86Q15.65 9.21 15.65 8.01L15.65 8.01L15.65 3.54L15.65 3.54Q15.65 2.32 16.14 1.71L16.14 1.71L16.14 1.71Q16.66 1.06 17.67 1.06L17.67 1.06L17.67 1.06Q18.68 1.06 19.18 1.71L19.18 1.71L19.18 1.71Q19.68 2.32 19.68 3.54L19.68 3.54L19.68 3.77L19.24 3.77L19.24 3.54L19.24 3.54Q19.24 2.86 19.08 2.45L19.08 2.45L19.08 2.45Q18.93 2.04 18.70 1.83L18.70 1.83L18.70 1.83Q18.47 1.62 18.19 1.56L18.19 1.56L18.19 1.56Q17.92 1.50 17.67 1.50L17.67 1.50L17.67 1.50Q17.42 1.50 17.14 1.56L17.14 1.56L17.14 1.56Q16.86 1.62 16.63 1.83L16.63 1.83L16.63 1.83Q16.39 2.04 16.24 2.45L16.24 2.45L16.24 2.45Q16.09 2.86 16.09 3.54L16.09 3.54L16.09 8.01L16.09 8.01Q16.09 9.06 16.49 9.58L16.49 9.58L16.49 9.58Q16.87 10.07 17.67 10.07L17.67 10.07L17.67 10.07Q18.45 10.07 18.83 9.58L18.83 9.58L18.83 9.58Q19.24 9.06 19.24 8.01L19.24 8.01L19.24 6.78L17.19 6.78L17.19 6.33L19.68 6.33L19.68 8.01L19.68 8.01Q19.68 9.23 19.18 9.86L19.18 9.86L19.18 9.86Q18.68 10.50 17.67 10.50ZM23.97 1.50L21.01 1.50L21.01 5.56L23.97 5.56L23.97 5.99L21.01 5.99L21.01 10.07L23.97 10.07L23.97 10.50L20.58 10.50L20.58 1.06L23.97 1.06L23.97 1.50ZM25.26 2.42L25.26 2.42L25.26 10.50L24.81 10.50L24.81 1.06L25.19 1.06L28.43 9.14L28.43 1.06L28.88 1.06L28.88 10.50L28.52 10.50L25.26 2.42ZM30.48 10.50L30.48 10.50L30.04 10.50L30.04 1.06L30.48 1.06L30.48 10.50L30.48 10.50ZM33.38 10.50L33.38 10.50L33.38 10.50Q33.03 10.50 32.67 10.40L32.67 10.40L32.67 10.40Q32.31 10.30 32.02 10.02L32.02 10.02L32.02 10.02Q31.72 9.74 31.54 9.26L31.54 9.26L31.54 9.26Q31.36 8.78 31.36 7.99L31.36 7.99L31.36 3.56L31.36 3.56Q31.36 2.79 31.54 2.30L31.54 2.30L31.54 2.30Q31.72 1.81 32.02 1.53L32.02 1.53L32.02 1.53Q32.31 1.26 32.67 1.16L32.67 1.16L32.67 1.16Q33.03 1.06 33.38 1.06L33.38 1.06L33.38 1.06Q33.71 1.06 34.07 1.16L34.07 1.16L34.07 1.16Q34.43 1.26 34.72 1.53L34.72 1.53L34.72 1.53Q35.01 1.81 35.20 2.30L35.20 2.30L35.20 2.30Q35.38 2.79 35.38 3.56L35.38 3.56L35.38 3.78L34.93 3.78L34.93 3.56L34.93 3.56Q34.93 2.48 34.54 1.99L34.54 1.99L34.54 1.99Q34.13 1.50 33.38 1.50L33.38 1.50L33.38 1.50Q32.61 1.50 32.20 1.99L32.20 1.99L32.20 1.99Q31.81 2.48 31.81 3.56L31.81 3.56L31.81 7.99L31.81 7.99Q31.81 9.07 32.21 9.58L32.21 9.58L32.21 9.58Q32.59 10.07 33.38 10.07L33.38 10.07L33.38 10.07Q34.13 10.07 34.54 9.58L34.54 9.58L34.54 9.58Q34.93 9.06 34.93 7.99L34.93 7.99L34.93 7.77L35.38 7.77L35.38 7.99L35.38 7.99Q35.38 8.78 35.20 9.26L35.20 9.26L35.20 9.26Q35.01 9.74 34.72 10.02L34.72 10.02L34.72 10.02Q34.43 10.30 34.07 10.40L34.07 10.40L34.07 10.40Q33.71 10.50 33.38 10.50ZM38.22 10.49L38.22 10.49L38.22 10.49Q37.21 10.49 36.71 9.84L36.71 9.84L36.71 9.84Q36.20 9.24 36.20 7.99L36.20 7.99L36.20 7.78L36.64 7.78L36.64 7.99L36.64 7.99Q36.64 8.69 36.79 9.10L36.79 9.10L36.79 9.10Q36.95 9.51 37.18 9.72L37.18 9.72L37.18 9.72Q37.41 9.93 37.69 9.99L37.69 9.99L37.69 9.99Q37.97 10.05 38.22 10.05L38.22 10.05L38.22 10.05Q38.98 10.05 39.39 9.53L39.39 9.53L39.39 9.53Q39.80 9.00 39.80 8.06L39.80 8.06L39.80 8.06Q39.80 7.56 39.63 7.22L39.63 7.22L39.63 7.22Q39.45 6.87 39.21 6.65L39.21 6.65L39.21 6.65Q38.96 6.43 38.70 6.30L38.70 6.30L38.70 6.30Q38.43 6.17 38.26 6.10L38.26 6.10L38.02 6.01L38.02 6.01Q37.81 5.92 37.51 5.76L37.51 5.76L37.51 5.76Q37.20 5.60 36.91 5.31L36.91 5.31L36.91 5.31Q36.62 5.03 36.41 4.60L36.41 4.60L36.41 4.60Q36.20 4.17 36.20 3.56L36.20 3.56L36.20 3.56Q36.20 2.49 36.69 1.81L36.69 1.81L36.69 1.81Q37.25 1.05 38.22 1.05L38.22 1.05L38.22 1.05Q39.21 1.05 39.75 1.71L39.75 1.71L39.75 1.71Q40.25 2.34 40.25 3.56L40.25 3.56L40.25 3.78L39.80 3.78L39.80 3.56L39.80 3.56Q39.80 2.49 39.40 1.97L39.40 1.97L39.40 1.97Q39.02 1.50 38.22 1.50L38.22 1.50L38.22 1.50Q37.46 1.50 37.06 2.07L37.06 2.07L37.06 2.07Q36.64 2.65 36.64 3.56L36.64 3.56L36.64 3.56Q36.64 4.06 36.81 4.41L36.81 4.41L36.81 4.41Q36.97 4.76 37.22 5.00L37.22 5.00L37.22 5.00Q37.46 5.24 37.73 5.38L37.73 5.38L37.73 5.38Q38.00 5.52 38.21 5.60L38.21 5.60L38.43 5.70L38.43 5.70Q38.61 5.77 38.92 5.92L38.92 5.92L38.92 5.92Q39.23 6.06 39.52 6.33L39.52 6.33L39.52 6.33Q39.82 6.61 40.03 7.03L40.03 7.03L40.03 7.03Q40.25 7.45 40.25 8.06L40.25 8.06L40.25 8.06Q40.25 9.11 39.75 9.77L39.75 9.77L39.75 9.77Q39.20 10.49 38.22 10.49Z"></path></g><!----><!----></svg>